<svg width="200" height="51" viewBox="0 0 200 51" fill="none" xmlns="http://www.w3.org/2000/svg">
<rect y="4" width="195" height="47" rx="10" fill="#434343"/>
<rect x="6" width="194" height="44" rx="10" fill="black"/>
<path d="M26.0186 22.9331L26.3848 19.4175H26.5312L27.8008 11.666H29.5952L29.7905 14.7422H29.0215L27.5566 22.9331H26.0186ZM20.4644 29V11.666H23.4673V29H20.4644ZM25.3105 22.9331L23.8457 14.7422H23.0767L23.272 11.666H25.0664L26.3359 19.4175H26.4336L26.7754 22.9331H25.3105ZM29.3999 29V11.666H32.4028V29H29.3999ZM34.4658 34.8594L34.3438 31.9907L36.5776 31.7466C37.3426 31.6571 37.9977 31.4536 38.543 31.1362C39.0882 30.8188 39.5521 30.3428 39.9346 29.708C40.3252 29.0814 40.6629 28.2594 40.9478 27.2422L44.0728 16.0605H47.5762L43.9385 27.8525C43.4502 29.4069 42.8887 30.6561 42.2539 31.6001C41.6191 32.5522 40.8664 33.2603 39.9956 33.7241C39.1248 34.1961 38.0832 34.4932 36.8706 34.6152L34.4658 34.8594ZM38.5674 29L34.2217 16.0605H37.7251L40.9355 26.1924H41.5215V29H38.5674ZM52.9595 29V25.9238H54.3145C55.9014 25.9238 57.0895 25.4722 57.8789 24.5688C58.6764 23.6574 59.0752 22.3268 59.0752 20.5771C59.0752 18.6566 58.6764 17.2039 57.8789 16.2192C57.0895 15.2345 55.9014 14.7422 54.3145 14.7422H53.0083L52.7153 11.666H54.3145C59.7425 11.666 62.4565 14.6364 62.4565 20.5771C62.4565 26.1924 59.7425 29 54.3145 29H52.9595ZM49.9077 29V11.666H53.1304V29H49.9077ZM71.4043 29.2441C69.1663 29.2441 67.437 28.6663 66.2163 27.5107C64.9956 26.347 64.3853 24.6787 64.3853 22.5059C64.3853 20.39 64.902 18.7461 65.9355 17.5742C66.9772 16.4023 68.4421 15.8164 70.3301 15.8164C72.1774 15.8164 73.6056 16.3576 74.6147 17.4399C75.6239 18.5223 76.1284 20.097 76.1284 22.1641C76.1284 22.75 76.104 23.3075 76.0552 23.8364H66.5581V21.5415H72.8813C72.8813 20.6707 72.6576 20.0034 72.21 19.5396C71.7705 19.0757 71.152 18.8438 70.3545 18.8438C69.4919 18.8438 68.8205 19.153 68.3403 19.7715C67.8683 20.3818 67.6323 21.2526 67.6323 22.3838C67.6323 23.6045 67.9823 24.5322 68.6821 25.167C69.3901 25.8018 70.3952 26.1191 71.6973 26.1191C72.2832 26.1191 72.861 26.0907 73.4307 26.0337C74.0003 25.9686 74.5822 25.8831 75.1763 25.7773L75.4937 28.9023C74.6636 29.0488 73.9067 29.1424 73.2231 29.1831C72.5396 29.2238 71.9333 29.2441 71.4043 29.2441ZM87.4077 29.1221L87.127 25.2891L87.0781 23.6045V21.0776C87.0781 20.3859 86.7811 19.8813 86.187 19.564C85.6011 19.2384 84.7262 19.0594 83.5625 19.0269L80.2544 18.9414L80.4985 15.9385L83.3184 15.9751C85.6621 16.0076 87.4036 16.4715 88.543 17.3667C89.6823 18.2537 90.252 19.5518 90.252 21.2607V26.0459L92.0464 26.3145V29L87.4077 29.1221ZM83.0254 29.2441C81.6501 29.2441 80.5799 28.9064 79.8149 28.231C79.05 27.5555 78.6675 26.5952 78.6675 25.3501C78.6675 23.9015 79.168 22.7907 80.1689 22.0176C81.1699 21.2445 82.59 20.8579 84.4292 20.8579C85.1372 20.8579 85.7476 20.8945 86.2603 20.9678C86.7811 21.041 87.306 21.1549 87.835 21.3096L87.2979 23.8853C86.777 23.7632 86.3091 23.694 85.894 23.6777C85.479 23.6533 85.0436 23.6411 84.5879 23.6411C82.8789 23.6411 82.0244 24.1294 82.0244 25.106C82.0244 25.5454 82.179 25.8831 82.4883 26.1191C82.7975 26.347 83.2492 26.4609 83.8433 26.4609C84.5594 26.4609 85.1576 26.3267 85.6377 26.0581C86.1178 25.7896 86.4759 25.4478 86.7119 25.0327C86.9561 24.6177 87.0781 24.1904 87.0781 23.751V22.9453L87.542 26.2656H86.5044L86.9316 25.875C86.9072 26.6237 86.7363 27.2503 86.4189 27.7549C86.1016 28.2513 85.654 28.6257 85.0762 28.8779C84.5065 29.1221 83.8229 29.2441 83.0254 29.2441ZM99.1509 23.4336L98.394 18.978H99.5049C99.6351 16.8703 100.738 15.8164 102.813 15.8164C104.042 15.8164 104.982 16.2681 105.633 17.1714C106.292 18.0747 106.622 19.3768 106.622 21.0776H103.326C103.326 20.3127 103.183 19.7633 102.898 19.4297C102.622 19.096 102.174 18.9292 101.556 18.9292C100.75 18.9292 100.148 19.3198 99.749 20.1011C99.3503 20.8823 99.1509 21.9932 99.1509 23.4336ZM93.1206 29V26.168H102.178V29H93.1206ZM95.855 29V16.0605H98.6626L99.1509 19.7715V29H95.855ZM93.6089 18.8926V16.0605H98.4917L98.7358 18.8926H93.6089ZM111.675 24.0317V21.0654H114.056C115.122 21.0654 115.944 20.7725 116.521 20.1865C117.107 19.6006 117.4 18.7827 117.4 17.7329C117.4 16.7401 117.107 15.9751 116.521 15.438C115.944 14.9009 115.122 14.6323 114.056 14.6323H111.724V11.666H114.056C116.229 11.666 117.909 12.1787 119.097 13.2041C120.285 14.2214 120.879 15.6618 120.879 17.5254C120.879 19.5924 120.285 21.1956 119.097 22.335C117.909 23.4661 116.229 24.0317 114.056 24.0317H111.675ZM108.746 29V11.666H111.968V29H108.746ZM131.146 29V21.1875C131.146 20.4632 130.983 19.9058 130.657 19.5151C130.34 19.1245 129.884 18.9292 129.29 18.9292C127.63 18.9292 126.8 20.0645 126.8 22.335L126.043 18.4043H127.117C127.239 17.5335 127.536 16.8866 128.008 16.4634C128.48 16.0321 129.196 15.8164 130.157 15.8164C131.524 15.8164 132.582 16.2314 133.331 17.0615C134.079 17.8916 134.454 19.0635 134.454 20.5771V29H131.146ZM123.492 29V10.6895H126.8V29H123.492ZM143.621 29.2441C141.757 29.2441 140.313 28.6582 139.288 27.4863C138.262 26.3145 137.75 24.6624 137.75 22.5303C137.75 20.39 138.262 18.738 139.288 17.5742C140.313 16.4023 141.757 15.8164 143.621 15.8164C145.485 15.8164 146.929 16.4023 147.955 17.5742C148.98 18.738 149.493 20.39 149.493 22.5303C149.493 24.6624 148.98 26.3145 147.955 27.4863C146.929 28.6582 145.485 29.2441 143.621 29.2441ZM143.621 26.1069C144.419 26.1069 145.033 25.7977 145.464 25.1792C145.896 24.5526 146.111 23.6696 146.111 22.5303C146.111 21.3828 145.896 20.4998 145.464 19.8813C145.033 19.2629 144.419 18.9536 143.621 18.9536C142.832 18.9536 142.217 19.2629 141.778 19.8813C141.347 20.4998 141.131 21.3828 141.131 22.5303C141.131 23.6696 141.347 24.5526 141.778 25.1792C142.217 25.7977 142.832 26.1069 143.621 26.1069ZM160.442 29V21.395C160.442 20.6138 160.28 20.0116 159.954 19.5884C159.637 19.1652 159.181 18.9536 158.587 18.9536C156.927 18.9536 156.097 20.1499 156.097 22.5425L155.34 18.4043H156.414C156.536 17.5335 156.833 16.8866 157.305 16.4634C157.777 16.0321 158.493 15.8164 159.454 15.8164C160.821 15.8164 161.879 16.2314 162.627 17.0615C163.376 17.8916 163.75 19.0635 163.75 20.5771V29H160.442ZM152.789 29V16.0605H155.743L156.097 18.7949V29H152.789ZM173.943 29.2441C171.705 29.2441 169.976 28.6663 168.755 27.5107C167.535 26.347 166.924 24.6787 166.924 22.5059C166.924 20.39 167.441 18.7461 168.475 17.5742C169.516 16.4023 170.981 15.8164 172.869 15.8164C174.716 15.8164 176.145 16.3576 177.154 17.4399C178.163 18.5223 178.667 20.097 178.667 22.1641C178.667 22.75 178.643 23.3075 178.594 23.8364H169.097V21.5415H175.42C175.42 20.6707 175.197 20.0034 174.749 19.5396C174.31 19.0757 173.691 18.8437 172.894 18.8437C172.031 18.8437 171.36 19.153 170.879 19.7715C170.407 20.3818 170.171 21.2526 170.171 22.3838C170.171 23.6045 170.521 24.5322 171.221 25.167C171.929 25.8018 172.934 26.1191 174.236 26.1191C174.822 26.1191 175.4 26.0907 175.97 26.0337C176.539 25.9686 177.121 25.8831 177.715 25.7773L178.033 28.9023C177.203 29.0488 176.446 29.1424 175.762 29.1831C175.079 29.2238 174.472 29.2441 173.943 29.2441ZM187.566 29.2441C186.948 29.2441 186.423 29.0285 185.992 28.5972C185.56 28.1577 185.345 27.6328 185.345 27.0225C185.345 26.404 185.56 25.8791 185.992 25.4478C186.423 25.0164 186.948 24.8008 187.566 24.8008C188.185 24.8008 188.71 25.0164 189.141 25.4478C189.572 25.8791 189.788 26.404 189.788 27.0225C189.788 27.6328 189.572 28.1577 189.141 28.5972C188.71 29.0285 188.185 29.2441 187.566 29.2441Z" fill="white"/>
</svg>
